<svg xmlns="http://www.w3.org/2000/svg" width="237" height="170" viewBox="0 0 237 170">
    <g fill="none" fill-rule="nonzero">
        <path fill="#000" d="M94.417 96.935c5.188 0 9.154 1.46 11.9 4.381 2.745 2.921 4.117 7.201 4.117 12.84v31.623c0 5.385-1.209 9.652-3.626 12.802l5.59 3.581-4.381 7.773-10.352-6.858-1.716.31c-.859.149-1.37.223-1.532.223-5.239 0-9.218-1.511-11.938-4.534-2.72-3.023-4.08-7.455-4.08-13.297v-31.623c0-5.639 1.372-9.919 4.118-12.84 2.745-2.92 6.711-4.381 11.9-4.381zm55.982-6v48.954c0 5.965-1.314 10.464-3.943 13.496-2.628 3.033-6.647 4.55-12.057 4.55s-9.43-1.517-12.058-4.55c-2.628-3.032-3.942-7.531-3.942-13.496V94.726l12.784-1.264v45.897c0 2.072.205 3.69.613 4.852.408 1.163 1.276 1.744 2.603 1.744 1.327 0 2.194-.569 2.603-1.706.408-1.137.612-2.767.612-4.89V92.88l12.785-1.946zm19-2v65.736l-13 1.264V90.829l13-1.894zm35-5V95.32l-15.42 44.355 14.73-2.53v11.993l-28.31 3.796v-10.577l16.315-45.165-14.858 2.53V87.73l27.543-3.795zM94.34 108.975c-2.065 0-3.098 1.777-3.098 5.333v30.938c0 1.829.202 3.34.605 4.534.403 1.193 1.259 1.79 2.569 1.79 1.259 0 2.065-.61 2.417-1.828.353-1.22.53-2.794.53-4.725v-30.632c0-1.677-.215-2.998-.643-3.963-.428-.965-1.222-1.448-2.38-1.448zm142.058-29.04V91.32l-15.42 44.355 14.73-2.53v11.993l-28.31 3.796v-10.577l16.315-45.165-14.858 2.53V83.73l27.543-3.795zM26.285 25.935c4.628 0 8.1 1.286 10.414 3.859 2.315 2.573 3.497 6.381 3.547 11.426l.151 30.419c.05 6.407-1.056 11.224-3.32 14.453-2.265 3.228-6.013 4.843-11.245 4.843H8.399v-65h17.886zm38.114-6c5.232 0 9.207 1.442 11.924 4.326 2.717 2.884 4.076 7.16 4.076 12.826v31.317c0 5.922-1.359 10.49-4.076 13.707-2.717 3.216-6.692 4.824-11.924 4.824-5.233 0-9.208-1.621-11.925-4.863-2.717-3.241-4.075-7.797-4.075-13.668V37.087c0-5.667 1.358-9.942 4.075-12.826 2.717-2.884 6.692-4.326 11.925-4.326zm39.345-6c4.39 0 7.798.867 10.225 2.603 2.427 1.736 4.106 4.263 5.035 7.58.93 3.319 1.395 7.581 1.395 12.788h-13.014V31.01c0-1.582-.22-2.808-.659-3.675-.439-.868-1.226-1.302-2.362-1.302-2.531 0-3.796 1.633-3.796 4.9v31.854c0 1.991.258 3.497.774 4.518.517 1.02 1.42 1.531 2.712 1.531 1.29 0 2.195-.51 2.71-1.531.517-1.021.776-2.527.776-4.518V53.37h-3.564V42.036h16.268v38.286h-5.345l-2.247-5.513c-2.375 4.084-6.042 6.126-11 6.126-4.803 0-8.379-1.672-10.729-5.016-2.35-3.343-3.524-8.41-3.524-15.2V32.39c0-6.075 1.368-10.67 4.105-13.784 2.737-3.113 6.817-4.67 12.24-4.67zm-80.855 23.35h-1.434v42.148h2.264c2.364 0 3.547-1.16 3.547-3.48V42.43c0-1.463-.113-2.56-.34-3.292-.226-.732-.641-1.223-1.245-1.476-.604-.252-1.535-.378-2.792-.378zm119.855-26.35c4.39 0 7.798.867 10.225 2.603 2.427 1.736 4.106 4.263 5.035 7.58.93 3.319 1.395 7.581 1.395 12.788h-13.014V28.01c0-1.582-.22-2.808-.659-3.675-.439-.868-1.226-1.302-2.362-1.302-2.531 0-3.796 1.633-3.796 4.9v31.854c0 1.991.258 3.497.774 4.518.517 1.02 1.42 1.531 2.712 1.531 1.29 0 2.195-.51 2.71-1.531.517-1.021.776-2.527.776-4.518V50.37h-3.564V39.036h16.268v38.286h-5.345l-2.247-5.513c-2.375 4.084-6.042 6.126-11 6.126-4.803 0-8.379-1.672-10.729-5.016-2.35-3.343-3.524-8.41-3.524-15.2V29.39c0-6.075 1.368-10.67 4.105-13.784 2.737-3.113 6.817-4.67 12.24-4.67zm-78.27 21.098c-2.163 0-3.245 1.659-3.245 4.977v32.083c0 1.89.226 3.319.68 4.288.452.97 1.282 1.455 2.49 1.455 1.157 0 1.937-.51 2.34-1.531.402-1.021.603-2.45.603-4.288v-32.16c0-1.43-.189-2.59-.566-3.484-.377-.893-1.145-1.34-2.302-1.34zM197.4 3.935L187.014 50.35v20.313l-12.323 1.27V50.352L164.4 7.693l12.931-1.271 3.523 22.193 3.614-23.41 12.932-1.27z"/>
        <path fill="#FFF" d="M18.285 21.415c4.628 0 8.1 1.286 10.414 3.859 2.315 2.573 3.497 6.381 3.547 11.426l.151 30.419c.05 6.407-1.056 11.224-3.32 14.453-2.265 3.228-6.013 4.843-11.245 4.843H.399v-65h17.886zm38.114-6c5.232 0 9.207 1.42 11.924 4.261C71.04 22.518 72.4 26.73 72.4 32.311v30.85c0 5.833-1.359 10.334-4.076 13.502-2.717 3.168-6.692 4.752-11.924 4.752-5.233 0-9.208-1.597-11.925-4.79-2.717-3.193-4.075-7.681-4.075-13.464V32.31c0-5.582 1.358-9.793 4.075-12.635 2.717-2.84 6.692-4.261 11.925-4.261zm38.85-5c4.256 0 7.561.854 9.915 2.564 2.354 1.71 3.981 4.2 4.883 7.468.901 3.268 1.352 7.467 1.352 12.596h-12.62v-5.808c0-1.559-.213-2.765-.638-3.62-.426-.855-1.19-1.283-2.292-1.283-2.453 0-3.68 1.61-3.68 4.828v31.378c0 1.961.25 3.445.75 4.45.502 1.006 1.378 1.509 2.63 1.509s2.128-.503 2.63-1.509c.5-1.005.75-2.489.75-4.45V49.26h-3.455V38.097h15.775V75.81h-5.184l-2.178-5.43c-2.304 4.022-5.86 6.034-10.667 6.034-4.657 0-8.125-1.647-10.403-4.94-2.279-3.295-3.418-8.285-3.418-14.974V28.593c0-5.984 1.327-10.51 3.981-13.577 2.654-3.068 6.61-4.601 11.869-4.601zm-80.36 22.35h-1.434v42.148h2.264c2.364 0 3.547-1.16 3.547-3.48V37.91c0-1.463-.113-2.56-.34-3.292-.226-.732-.641-1.223-1.245-1.476-.604-.252-1.535-.378-2.792-.378zm119.36-26.35c4.256 0 7.561.854 9.915 2.564 2.354 1.71 3.981 4.2 4.883 7.468.901 3.268 1.352 7.467 1.352 12.596h-12.62v-5.808c0-1.559-.213-2.765-.638-3.62-.426-.855-1.19-1.283-2.292-1.283-2.453 0-3.68 1.61-3.68 4.828v31.378c0 1.961.25 3.445.75 4.45.502 1.006 1.378 1.509 2.63 1.509s2.128-.503 2.63-1.509c.5-1.005.75-2.489.75-4.45V45.26h-3.455V34.097h15.775V71.81h-5.184l-2.178-5.43c-2.304 4.022-5.86 6.034-10.667 6.034-4.657 0-8.125-1.647-10.403-4.94-2.279-3.295-3.418-8.285-3.418-14.974V24.593c0-5.984 1.327-10.51 3.981-13.577 2.654-3.068 6.61-4.601 11.869-4.601zM56.474 27.332c-2.163 0-3.245 1.635-3.245 4.903V63.84c0 1.86.226 3.268.68 4.224.452.955 1.282 1.433 2.49 1.433 1.157 0 1.937-.503 2.34-1.509.402-1.005.603-2.413.603-4.224v-31.68c0-1.408-.189-2.552-.566-3.432-.377-.88-1.145-1.32-2.302-1.32zM188.4.415l-10.385 45.734v20.013l-12.323 1.253V46.149L155.4 4.118l12.931-1.253 3.523 21.867 3.614-23.065L188.4.415zM87.417 90.935c5.188 0 9.154 1.46 11.9 4.381 2.745 2.921 4.117 7.201 4.117 12.84v31.623c0 5.385-1.209 9.652-3.626 12.802l5.59 3.581-4.381 7.773-10.352-6.858-1.716.31c-.859.149-1.37.223-1.532.223-5.239 0-9.218-1.511-11.938-4.534-2.72-3.023-4.08-7.455-4.08-13.297v-31.623c0-5.639 1.372-9.919 4.118-12.84 2.745-2.92 6.711-4.381 11.9-4.381zm55.982-6v48.954c0 5.965-1.314 10.464-3.943 13.496-2.628 3.033-6.647 4.55-12.057 4.55s-9.43-1.517-12.058-4.55c-2.628-3.032-3.942-7.531-3.942-13.496V88.726l12.784-1.264v45.897c0 2.072.205 3.69.613 4.852.408 1.163 1.276 1.744 2.603 1.744 1.327 0 2.194-.569 2.603-1.706.408-1.137.612-2.767.612-4.89V86.88l12.785-1.946zm20-2v65.736l-13 1.264V84.829l13-1.894zm34-5V89.32l-15.42 44.355 14.73-2.53v11.993l-28.31 3.796v-10.577l16.315-45.165-14.858 2.53V81.73l27.543-3.795zM87.34 102.975c-2.065 0-3.098 1.777-3.098 5.333v30.938c0 1.829.202 3.34.605 4.534.403 1.193 1.259 1.79 2.569 1.79 1.259 0 2.065-.61 2.417-1.828.353-1.22.53-2.794.53-4.725v-30.632c0-1.677-.215-2.998-.643-3.963-.428-.965-1.222-1.448-2.38-1.448zm143.058-29.04V85.32l-15.42 44.355 14.73-2.53v11.993l-28.31 3.796v-10.577l16.315-45.165-14.858 2.53V77.73l27.543-3.795z"/>
    </g>
</svg>
