<svg xmlns="http://www.w3.org/2000/svg" width="117" height="58" viewBox="0 0 117 58">
    <g fill="#FFF" fill-rule="nonzero" opacity=".5">
        <path d="M21.45 16.98a4.609 4.609 0 0 0-1.62-2.149c-.72-.506-1.632-.79-2.707-.827-1.075-.038-2.307.212-3.71.743a21.086 21.086 0 0 0-3.48 1.705 28.215 28.215 0 0 0-5.899 4.762 24.76 24.76 0 0 0-2.129 2.573A13.684 13.684 0 0 0 .5 26.183a5.012 5.012 0 0 0-.5 2.01c0 .48.151.816.433.999.313.2.748.192 1.328-.027a3.677 3.677 0 0 0 1.385-.918 8.219 8.219 0 0 0 1.043-1.375c.313-.507.637-1.078.96-1.69.325-.61.689-1.23 1.097-1.858.41-.54.862-1.048 1.355-1.52a17.765 17.765 0 0 1 1.747-1.473 20.69 20.69 0 0 1 1.993-1.298c.658-.382 1.348-.71 2.062-.983a4.434 4.434 0 0 1 1.853-.338c.455.02.89.189 1.232.478.355.328.614.741.75 1.196.19.603.283 1.23.279 1.859-.007.97-.147 1.936-.417 2.872a21.627 21.627 0 0 1-1.232 3.362 30.08 30.08 0 0 1-4.476 6.91 25.575 25.575 0 0 1-2.971 2.93 16.44 16.44 0 0 1-2.534 1.74c.34-.63.686-1.298 1.036-1.99.49-.967.973-1.957 1.44-2.942.466-.985.925-1.977 1.36-2.945.434-.968.84-1.877 1.214-2.72.373-.843.703-1.613.994-2.28.29-.665.527-1.219.703-1.626.181-.394.327-.801.437-1.218.103-.372.156-.754.156-1.139a1.52 1.52 0 0 0-.39-1.086c-.289-.292-.734-.326-1.325-.103a3.135 3.135 0 0 0-.523.273c-.273.181-.523.392-.746.627-.315.33-.605.68-.869 1.05-.356.501-.67 1.03-.936 1.58L1.972 40.619a6.019 6.019 0 0 0-.42 1.013 3.461 3.461 0 0 0-.16 1.066c0 .489.176.857.484 1.095.183.138.41.211.642.208.22-.005.436-.05.638-.132a27.59 27.59 0 0 0 5.565-2.835 32.419 32.419 0 0 0 4.674-3.764 31.737 31.737 0 0 0 3.717-4.328 31.685 31.685 0 0 0 2.704-4.535 24.253 24.253 0 0 0 1.647-4.392c.351-1.277.532-2.592.537-3.913a8.876 8.876 0 0 0-.55-3.12zM110.927 2.605a1.592 1.592 0 0 0-1.988-1.03L82.732 9.832a4.68 4.68 0 0 0-.298.075l3.325-7.234v-.022c.08-.193.12-.4.117-.61a1.169 1.169 0 0 0-.286-.755c-.14-.168-.466-.406-1.06-.218a6.435 6.435 0 0 0-.436.154 2.892 2.892 0 0 0-.532.286c-.215.144-.422.3-.62.468-.233.195-.508.46-.847.791l-6.902 8.15 2.773-6.03c.073-.17.109-.353.105-.538a.953.953 0 0 0-.757-.937 2.136 2.136 0 0 0-1.187.08 3.873 3.873 0 0 0-1.228.684c-.432.352-.78.796-1.017 1.298l-.017.039a88.465 88.465 0 0 1-.872 2.173c-.259.62-.5 1.175-.714 1.65a54.84 54.84 0 0 0-.339.761c-.135.09-.286.19-.452.304-.523.358-1.227.878-2.095 1.548-.498.385-1.08.84-1.735 1.376l2.795-5.594c.11-.202.168-.428.17-.658a1.025 1.025 0 0 0-.772-.98c-.387-.128-.873-.095-1.489.1a3.35 3.35 0 0 0-.693.316 6.65 6.65 0 0 0-.869.616 4.442 4.442 0 0 0-.603-.176h-.022a5.306 5.306 0 0 0-2.544.22 10.923 10.923 0 0 0-2.839 1.43 13.958 13.958 0 0 0-2.605 2.323 12.28 12.28 0 0 0-1.923 2.972c-.066.143-.147.29-.232.448-.194.321-.345.665-.45 1.025l.046.01a27.727 27.727 0 0 0-7.239 3.694l3.093-6.19c.109-.203.167-.428.17-.658a1.026 1.026 0 0 0-.77-.98c-.387-.128-.875-.095-1.49.1a3.35 3.35 0 0 0-.694.316 6.65 6.65 0 0 0-.869.616 4.443 4.443 0 0 0-.603-.168h-.022a5.587 5.587 0 0 0-1.07-.059c-.5.026-.995.12-1.469.28-1.012.329-1.97.803-2.842 1.408a14.016 14.016 0 0 0-2.603 2.33c-.373.427-.717.88-1.028 1.354-.21.267-.446.56-.702.868a37.71 37.71 0 0 1-.848.976c-.292.327-.597.631-.892.905l-.236.227c-.298.299-.615.58-.95.84h-.023c.088-.281.16-.553.214-.812.086-.386.131-.78.134-1.175-.01-.702-.207-1.26-.582-1.656a2.648 2.648 0 0 0-1.323-.755 4.469 4.469 0 0 0-1.573-.078 8.062 8.062 0 0 0-1.501.316c-1.02.317-1.99.774-2.883 1.357a13.392 13.392 0 0 0-2.274 1.887 13.695 13.695 0 0 0-1.696 2.17c-.443.7-.832 1.433-1.163 2.191-.285.651-.512 1.325-.679 2.015a6.85 6.85 0 0 0-.215 1.62c.01.703.19 1.267.534 1.68.317.387.738.678 1.214.84.456.153.938.215 1.418.184.423-.02.842-.09 1.246-.213a13.136 13.136 0 0 0 2.493-1.078 14.76 14.76 0 0 0 2.157-1.464 14.159 14.159 0 0 0 1.813-1.8c.453-.542.867-1.114 1.24-1.712.208.037.42.052.632.044a5.619 5.619 0 0 0 1.496-.336 3.737 3.737 0 0 0 1.404-1.175c.048.25.12.496.219.732.18.44.464.83.828 1.137.36.3.8.494 1.266.559a3.312 3.312 0 0 0 1.511-.146c.33-.11.649-.248.953-.413a9.694 9.694 0 0 0 1.406-.909c-.383.618-.768 1.157-1.075 1.413-.214.176-.678.49-1.267.888-2.17 1.464-6.212 4.198-8.323 7.247-1.843 2.665-1.044 4.476-.403 5.317.987 1.296 2.845 1.887 4.154 1.887.29.007.58-.032.857-.116.787-.26 1.053-.347 5.426-8.129 1.625-2.888 4.169-7.419 5.106-9.101.382-.467 2.856-3.291 8.167-5.36.044.197.105.39.182.577.207.492.637.85.953 1.112l.037.032c.362.3.802.493 1.269.56a3.314 3.314 0 0 0 1.51-.147 6.36 6.36 0 0 0 .969-.418c.18-.096.368-.203.563-.326a52.507 52.507 0 0 0-1.596 2.302l-.073.123a59.574 59.574 0 0 0-1.62 2.35 34.695 34.695 0 0 0-1.617 2.728 21.37 21.37 0 0 1-.45.806 9.914 9.914 0 0 0-.763 1.511 5.45 5.45 0 0 0-.368 1.866c-.019.534.23 1.042.667 1.357.299.191.65.288 1.005.275.279 0 .555-.045.82-.13.36-.112.702-.273 1.017-.48a3.8 3.8 0 0 0 .872-.84c.3-.4.563-.827.785-1.275.25-.489.53-1.112.834-1.847l4.153-7.997h-.024l.563-1.081c.633-.663 1.3-1.29 2.002-1.881a46.53 46.53 0 0 1 2.204-1.758l.409-.302a3.587 3.587 0 0 0-.022.44c.012.84.573 1.06.814 1.118.426.084.868.05 1.277-.096 1.288-.408 2.67-1.343 4.11-2.766a34.618 34.618 0 0 0 1.9-2.063l-1.428 3.037a77.861 77.861 0 0 0-1.842 2.73c-.437.676-.84 1.373-1.206 2.088a8.537 8.537 0 0 0-.656 1.666c-.12.467-.18.948-.178 1.43.012.786.385 1.176.694 1.354.42.249.94.277 1.541.087 1.269-.401 2.359-1.625 3.337-3.744l.22-.492a108.942 108.942 0 0 0 1.2-2.865c.25-.63.509-1.281.761-1.968l.382-1.008c1.451-1.137 2.594-1.422 2.725-1.452l.095-.015 26.383-8.314c.403-.123.74-.4.936-.77.197-.37.236-.803.109-1.202zm-48.943 12.54c-.3.345-.621.672-.961.978-.19.19-.416.339-.665.44-.16.068-.335.095-.509.08a.262.262 0 0 1-.149-.075.523.523 0 0 1-.098-.233 2.661 2.661 0 0 1-.043-.418c0-.499.099-.993.289-1.455a6.137 6.137 0 0 1 .847-1.49c.357-.47.773-.892 1.238-1.257a4.453 4.453 0 0 1 1.401-.76c.156-.046.316-.075.478-.084h.136c.12-.001.238.011.354.037.109.021.21.07.295.139.01.008.038.032.04.12a1.648 1.648 0 0 1-.18.447c-.184.358-.387.706-.607 1.043-.258.403-.552.83-.872 1.266-.32.437-.661.843-.994 1.223zm-17.975 3.92c-.32.435-.651.84-.984 1.228-.3.345-.621.671-.961.977-.19.189-.415.338-.663.44-.16.067-.336.095-.51.08a.269.269 0 0 1-.15-.075.513.513 0 0 1-.097-.233 2.478 2.478 0 0 1-.042-.419c0-.498.098-.992.286-1.454a6.25 6.25 0 0 1 .848-1.49c.357-.47.774-.893 1.24-1.257a4.453 4.453 0 0 1 1.4-.76c.156-.047.316-.075.477-.085h.138c.118 0 .237.012.352.037.109.022.21.07.295.14.01 0 .038.032.04.12a1.65 1.65 0 0 1-.2.446c-.185.357-.387.705-.606 1.042-.26.4-.553.825-.872 1.263h.009zm-13.726 2.742c-.003.488-.1.971-.287 1.423a6.45 6.45 0 0 1-.848 1.511c-.355.478-.769.91-1.233 1.285a4.181 4.181 0 0 1-1.368.762.958.958 0 0 1-.526.067.363.363 0 0 1-.212-.14.865.865 0 0 1-.14-.357 3.278 3.278 0 0 1-.053-.52c.002-.48.099-.955.287-1.398.213-.525.494-1.02.837-1.472a6.793 6.793 0 0 1 1.221-1.25c.414-.333.885-.59 1.39-.757.156-.056.32-.087.484-.094a.36.36 0 0 1 .092.008c.075.011.143.048.193.105a.624.624 0 0 1 .115.293c.03.177.045.355.048.534zm8.102 10.55c-1.388 2.448-2.42 4.197-2.984 5.069-.387-.106-.736-.284-.826-.435-.04-.07 0-.49.509-1.22.709-1.027 1.833-2.186 3.301-3.415zM114.475 4c-.73 0-1.35-.65-1.458-1.532-.11-.88.325-1.727 1.022-1.99l1.022-.386c.507-.206 1.066-.06 1.46.38.395.441.563 1.109.44 1.745-.124.635-.52 1.14-1.034 1.317l-1.022.384c-.14.054-.284.081-.43.082z"/>
        <path d="M113.522 19.552a1.133 1.133 0 0 0-.96-.077c-.14.047-.274.107-.402.18a1.726 1.726 0 0 0-.432.336 70.912 70.912 0 0 1-2.207 2.234c-.411.396-.84.79-1.257 1.175a23.66 23.66 0 0 1-1.207 1.033 14.6 14.6 0 0 1-1.062.788c-.163.11-.333.21-.51.299.026-.14.063-.276.11-.41.094-.28.201-.553.323-.821a385.858 385.858 0 0 1 2.112-4.663c.414-.897.849-1.834 1.285-2.788.436-.954.866-1.87 1.284-2.756.417-.885.8-1.69 1.173-2.459.371-.769.679-1.399.937-1.908.144-.272.266-.527.361-.759.11-.244.168-.508.17-.776-.012-.828-.569-1.06-.808-1.122a2.183 2.183 0 0 0-1.207.06c-.42.138-.812.35-1.156.626-.408.321-.727.739-.93 1.214l-4.817 10.626-.62 1.388a28.528 28.528 0 0 1-1.286 1.511c-.284.31-.564.595-.849.853-.252.24-.52.465-.8.672a2.214 2.214 0 0 1-.602.336 8.01 8.01 0 0 0 .187-.717 5.1 5.1 0 0 0 .127-1.115c-.01-.672-.197-1.203-.557-1.584a2.553 2.553 0 0 0-1.265-.72 4.289 4.289 0 0 0-1.499-.074c-.483.054-.96.154-1.424.299a10.9 10.9 0 0 0-2.728 1.286 12.606 12.606 0 0 0-2.155 1.787 12.891 12.891 0 0 0-1.614 2.054c-.31.494-.593 1.003-.849 1.525-.23.242-.436.449-.63.628-.252.24-.52.464-.8.672a2.312 2.312 0 0 1-.602.336c.076-.25.14-.49.187-.719a5.1 5.1 0 0 0 .127-1.115c-.01-.672-.197-1.203-.557-1.582-.34-.359-.78-.61-1.265-.722a4.289 4.289 0 0 0-1.499-.074c-.483.054-.96.154-1.424.299a10.93 10.93 0 0 0-2.728 1.276 12.594 12.594 0 0 0-2.154 1.787 12.923 12.923 0 0 0-1.615 2.056c-.42.662-.788 1.355-1.102 2.072-.12.28-.229.554-.324.825-.53.445-1.019.858-1.48 1.235a52.679 52.679 0 0 1-2.292 1.81c-.557.42-1.135.813-1.732 1.176a7.19 7.19 0 0 1-.94.48c.08-.11.17-.212.266-.309.105-.105.218-.2.34-.285.6-.4 1.226-.857 1.855-1.36a15.505 15.505 0 0 0 1.746-1.61 8.678 8.678 0 0 0 1.3-1.807c.34-.622.515-1.319.51-2.026a1.611 1.611 0 0 0-.462-1.19 2.008 2.008 0 0 0-1.02-.513 3.74 3.74 0 0 0-1.206-.021 7.093 7.093 0 0 0-1.197.263 7.847 7.847 0 0 0-1.867.875 13.12 13.12 0 0 0-1.64 1.248c-.107.094-.212.19-.316.287.351-.749.706-1.511 1.06-2.294.425-.942.863-1.894 1.303-2.832.44-.937.87-1.803 1.31-2.64.158-.26.296-.531.415-.811.129-.284.197-.592.202-.904.006-.39-.215-.75-.567-.925-.326-.168-.774-.153-1.413.05-.237.077-.465.18-.679.308-.214.126-.417.27-.606.431a4.718 4.718 0 0 0-.509.504 2.35 2.35 0 0 0-.372.563l-4.994 10.705-.635 1.367a337.92 337.92 0 0 0-1.676 3.665 79.023 79.023 0 0 0-.796 1.83 32.81 32.81 0 0 0-.601 1.526c-.134.336-.23.686-.289 1.043a1.1 1.1 0 0 0-.02.213v.111c.01.652.34.875.547.952.116.042.24.063.363.06.225-.006.448-.047.66-.12.773-.244 1.59-.94 2.498-2.13l.015-.022c.278-.41.567-.84.849-1.288.282-.448.587-.903.901-1.379.314-.475.647-.955 1.007-1.456l.278-.385c-.17.256-.328.52-.47.792a4.128 4.128 0 0 0-.482 1.991c.01.649.224 1.127.635 1.42.524.373 1.299.39 2.368.052a13.654 13.654 0 0 0 2.703-1.201c.87-.506 1.71-1.063 2.516-1.666a41.686 41.686 0 0 0 2.356-1.898h.01c.065.125.143.242.233.35.304.37.706.647 1.161.8a3.54 3.54 0 0 0 1.358.177 4.905 4.905 0 0 0 1.189-.203c.821-.259 1.614-.601 2.364-1.022a13.885 13.885 0 0 0 2.051-1.404 13.34 13.34 0 0 0 1.72-1.704c.425-.508.814-1.044 1.166-1.604.193.033.389.046.584.04.327-.012.65-.069.961-.168a4.03 4.03 0 0 0 .798-.36c.054.396.216.77.467 1.082.303.37.706.647 1.161.801a3.54 3.54 0 0 0 1.358.177 4.92 4.92 0 0 0 1.188-.204 12.567 12.567 0 0 0 2.365-1.02c.725-.407 1.411-.877 2.051-1.405a13.34 13.34 0 0 0 1.72-1.705c.424-.508.814-1.044 1.166-1.604.193.034.389.047.584.04.327-.012.65-.069.961-.167.37-.12.72-.293 1.04-.512-.02.193-.03.388-.027.582 0 .306.053.61.155.899.106.31.311.578.586.76.297.186.641.284.993.283a3.982 3.982 0 0 0 1.288-.222 8.961 8.961 0 0 0 2.13-1.033 19.054 19.054 0 0 0 2.126-1.609 32.563 32.563 0 0 0 2.122-2.015 73.438 73.438 0 0 0 2.078-2.239c.353-.313.649-.682.876-1.093.168-.297.261-.628.272-.968a.985.985 0 0 0-.477-.887zm-17.44 5.356c-.003.458-.095.91-.27 1.334-.2.506-.468.984-.796 1.42-.335.45-.725.856-1.161 1.21-.38.316-.816.559-1.286.716a.9.9 0 0 1-.48.062.34.34 0 0 1-.187-.123.8.8 0 0 1-.127-.324 3.034 3.034 0 0 1-.05-.489c.002-.45.094-.895.27-1.31.2-.493.466-.958.788-1.384.33-.439.717-.834 1.15-1.175a4.156 4.156 0 0 1 1.307-.712c.144-.051.295-.08.448-.088.027 0 .054.002.08.009a.257.257 0 0 1 .17.089.55.55 0 0 1 .105.262c.024.167.037.335.039.503zm-13.809 4.367a3.55 3.55 0 0 1-.27 1.336 6.145 6.145 0 0 1-.796 1.419 6.797 6.797 0 0 1-1.161 1.209c-.38.316-.816.558-1.285.715a.857.857 0 0 1-.48.063.316.316 0 0 1-.188-.123.8.8 0 0 1-.127-.324 3.07 3.07 0 0 1-.05-.489c.003-.45.094-.895.27-1.31.2-.493.465-.959.789-1.384.33-.439.716-.834 1.149-1.176a4.117 4.117 0 0 1 1.307-.71 1.518 1.518 0 0 1 .528-.087c.066.008.126.04.17.089a.556.556 0 0 1 .105.263c.025.17.038.34.04.511v-.002zm-17.236 6.752c1.984-2.5 3.215-3.49 3.952-3.863-.097.178-.21.347-.34.504-.178.215-.367.42-.567.616-.215.212-.448.422-.694.625l-.019.015c-.329.3-.728.65-1.188 1.04-.493.423-.955.88-1.382 1.369l-.095.11c.107-.129.219-.272.333-.414v-.002zM56.723 34.406a2.894 2.894 0 0 0-.709-.81 4.851 4.851 0 0 0-1.063-.63c-.44-.191-.89-.358-1.348-.5l-3.794-1.209a16.465 16.465 0 0 1-.912-.312 4 4 0 0 1-.622-.296.987.987 0 0 1-.302-.27.504.504 0 0 1-.079-.29c.018-.279.111-.548.271-.778a6.05 6.05 0 0 1 .844-1.064 12.67 12.67 0 0 1 1.262-1.124 18.17 18.17 0 0 1 3.042-1.931c.331-.17.65-.309.948-.424a.43.43 0 0 0 .199-.156l2.021-2.95a.416.416 0 0 0 .016-.454.433.433 0 0 0-.407-.206c-.296.02-.59.058-.881.113-.27.057-.537.127-.799.21a14.11 14.11 0 0 0-2.274.97c-.81.429-1.594.905-2.346 1.428-.78.54-1.526 1.127-2.233 1.759a18.002 18.002 0 0 0-1.878 1.938 10.085 10.085 0 0 0-1.31 1.996 4.418 4.418 0 0 0-.49 1.986c-.001.685.26 1.345.73 1.85.443.48 1.104.914 1.973 1.293.163.07.562.214 1.216.441.654.228 1.614.495 2.868.802.635.153 1.097.34 1.374.558.276.22.333.433.343.562-.01.407-.134.805-.36 1.146-.3.47-.668.895-1.092 1.26a9.248 9.248 0 0 1-1.654 1.14c-.593.323-2.233.88-3.118 1.156a.437.437 0 0 0-.094.044L12.09 52.015a1.523 1.523 0 0 0-1.02 1.909 1.55 1.55 0 0 0 1.932 1.008l37.34-11.396a1.54 1.54 0 0 0 .451-.225c1.309-.538 2.523-1.233 3.134-1.845.86-.848 1.934-2.532 2.386-3.412.437-.79.672-1.674.687-2.574 0-.375-.095-.744-.277-1.074zM6.465 58c-.724 0-1.34-.593-1.448-1.396-.109-.803.323-1.574 1.015-1.813l2.03-.702c.504-.194 1.063-.065 1.458.337.395.403.564 1.014.44 1.596-.124.582-.52 1.042-1.035 1.201l-2.028.704c-.14.048-.286.073-.432.073z"/>
    </g>
</svg>
